<?xml version="1.0" standalone="no"?>
<!DOCTYPE svg PUBLIC "-//W3C//DTD SVG 20010904//EN"
 "http://www.w3.org/TR/2001/REC-SVG-20010904/DTD/svg10.dtd">
<svg version="1.0" xmlns="http://www.w3.org/2000/svg"
 width="500.000000pt" height="500.000000pt" viewBox="0 0 500.000000 500.000000"
 preserveAspectRatio="xMidYMid meet">
<metadata>
Created by potrace 1.11, written by Peter Selinger 2001-2013
</metadata>
<g transform="translate(0.000000,500.000000) scale(0.100000,-0.100000)"
fill="#000000" stroke="none">
<path d="M1920 4183 c-393 -39 -705 -195 -958 -478 -351 -394 -500 -1057 -376
-1675 142 -706 619 -1160 1283 -1221 285 -26 572 29 822 158 518 267 809 828
809 1558 0 929 -507 1575 -1299 1655 -98 9 -204 11 -281 3z m273 -338 c314
-55 557 -251 718 -580 111 -227 162 -463 162 -755 1 -615 -236 -1092 -638
-1286 -145 -71 -222 -87 -410 -87 -134 0 -173 3 -240 21 -458 125 -756 561
-806 1179 -42 526 132 1044 438 1305 206 176 497 252 776 203z"/>
<path d="M2347 3650 c-319 -335 -478 -847 -426 -1376 34 -355 148 -661 334
-899 92 -117 128 -149 159 -141 42 10 197 121 260 185 l60 60 -55 58 c-150
158 -256 389 -306 663 -24 134 -23 448 1 585 47 264 151 484 305 648 l64 68
-69 70 c-68 69 -203 169 -229 169 -7 0 -51 -40 -98 -90z"/>
<path d="M3508 4169 c-215 -15 -433 -64 -610 -138 l-77 -33 82 -60 c45 -34
114 -93 152 -132 l71 -71 89 26 c245 72 611 79 950 19 96 -17 242 -54 298 -75
16 -7 17 5 17 153 l0 161 -82 31 c-243 94 -588 141 -890 119z"/>
<path d="M3526 2588 c-3 -7 -7 -86 -10 -174 l-5 -162 330 -7 329 -7 -2 -497
-3 -496 -69 -23 c-114 -38 -253 -55 -461 -55 -204 -1 -295 11 -455 57 l-84 24
-82 -77 c-45 -43 -118 -102 -162 -132 -45 -30 -81 -57 -82 -61 0 -13 157 -71
268 -99 178 -45 321 -61 557 -61 308 0 542 33 790 110 l90 28 -4 814 c-2 448
-5 818 -8 823 -2 4 -213 7 -469 7 -363 0 -465 -3 -468 -12z"/>
</g>
</svg>
